<svg width="28" height="27" viewBox="0 0 28 27" fill="none" xmlns="http://www.w3.org/2000/svg">
<path d="M14.0001 0.271729C6.66675 0.271729 0.666748 6.2584 0.666748 13.6317C0.666748 20.2984 5.54675 25.8317 11.9201 26.8317V17.4984H8.53341V13.6317H11.9201V10.6851C11.9201 7.3384 13.9067 5.4984 16.9601 5.4984C18.4134 5.4984 19.9334 5.75173 19.9334 5.75173V9.04506H18.2534C16.6001 9.04506 16.0801 10.0717 16.0801 11.1251V13.6317H19.7867L19.1867 17.4984H16.0801V26.8317C19.222 26.3355 22.083 24.7324 24.1467 22.3118C26.2103 19.8912 27.3405 16.8126 27.3334 13.6317C27.3334 6.2584 21.3334 0.271729 14.0001 0.271729Z" fill="#FFFBFB"/>
</svg>
