<svg width="27" height="27" viewBox="0 0 27 27" fill="none" xmlns="http://www.w3.org/2000/svg">
<path d="M7.86663 0.218506H19.0666C23.3333 0.218506 26.8 3.68517 26.8 7.95184V19.1518C26.8 21.2028 25.9852 23.1699 24.5349 24.6201C23.0846 26.0704 21.1176 26.8852 19.0666 26.8852H7.86663C3.59997 26.8852 0.133301 23.4185 0.133301 19.1518V7.95184C0.133301 5.90083 0.948061 3.93383 2.39834 2.48355C3.84862 1.03327 5.81563 0.218506 7.86663 0.218506ZM7.59997 2.88517C6.32693 2.88517 5.10603 3.39089 4.20586 4.29106C3.30568 5.19124 2.79997 6.41213 2.79997 7.68517V19.4185C2.79997 22.0718 4.94663 24.2185 7.59997 24.2185H19.3333C20.6063 24.2185 21.8272 23.7128 22.7274 22.8126C23.6276 21.9124 24.1333 20.6915 24.1333 19.4185V7.68517C24.1333 5.03184 21.9866 2.88517 19.3333 2.88517H7.59997ZM20.4666 4.88517C20.9087 4.88517 21.3326 5.06077 21.6451 5.37333C21.9577 5.68589 22.1333 6.10981 22.1333 6.55184C22.1333 6.99387 21.9577 7.41779 21.6451 7.73035C21.3326 8.04291 20.9087 8.21851 20.4666 8.21851C20.0246 8.21851 19.6007 8.04291 19.2881 7.73035C18.9756 7.41779 18.8 6.99387 18.8 6.55184C18.8 6.10981 18.9756 5.68589 19.2881 5.37333C19.6007 5.06077 20.0246 4.88517 20.4666 4.88517ZM13.4666 6.88517C15.2347 6.88517 16.9304 7.58755 18.1807 8.83779C19.4309 10.088 20.1333 11.7837 20.1333 13.5518C20.1333 15.3199 19.4309 17.0156 18.1807 18.2659C16.9304 19.5161 15.2347 20.2185 13.4666 20.2185C11.6985 20.2185 10.0028 19.5161 8.75259 18.2659C7.50235 17.0156 6.79997 15.3199 6.79997 13.5518C6.79997 11.7837 7.50235 10.088 8.75259 8.83779C10.0028 7.58755 11.6985 6.88517 13.4666 6.88517ZM13.4666 9.55184C12.4058 9.55184 11.3884 9.97327 10.6382 10.7234C9.88806 11.4736 9.46663 12.491 9.46663 13.5518C9.46663 14.6127 9.88806 15.6301 10.6382 16.3803C11.3884 17.1304 12.4058 17.5518 13.4666 17.5518C14.5275 17.5518 15.5449 17.1304 16.2951 16.3803C17.0452 15.6301 17.4666 14.6127 17.4666 13.5518C17.4666 12.491 17.0452 11.4736 16.2951 10.7234C15.5449 9.97327 14.5275 9.55184 13.4666 9.55184Z" fill="#FFFBFB"/>
</svg>
