<svg width="25" height="25" viewBox="0 0 25 25" fill="none" xmlns="http://www.w3.org/2000/svg">
<path d="M21.5599 0.551758C22.2671 0.551758 22.9454 0.832709 23.4455 1.33281C23.9456 1.8329 24.2266 2.51118 24.2266 3.21842V21.8851C24.2266 22.5923 23.9456 23.2706 23.4455 23.7707C22.9454 24.2708 22.2671 24.5518 21.5599 24.5518H2.89323C2.18599 24.5518 1.50771 24.2708 1.00761 23.7707C0.507514 23.2706 0.226563 22.5923 0.226562 21.8851V3.21842C0.226562 2.51118 0.507514 1.8329 1.00761 1.33281C1.50771 0.832709 2.18599 0.551758 2.89323 0.551758H21.5599ZM20.8932 21.2184V14.1518C20.8932 12.999 20.4353 11.8934 19.6201 11.0782C18.805 10.263 17.6994 9.80509 16.5466 9.80509C15.4132 9.80509 14.0932 10.4984 13.4532 11.5384V10.0584H9.73323V21.2184H13.4532V14.6451C13.4532 13.6184 14.2799 12.7784 15.3066 12.7784C15.8016 12.7784 16.2764 12.9751 16.6265 13.3252C16.9766 13.6752 17.1732 14.15 17.1732 14.6451V21.2184H20.8932ZM5.3999 7.96509C5.99398 7.96509 6.56373 7.72909 6.98382 7.30901C7.4039 6.88893 7.6399 6.31918 7.6399 5.72509C7.6399 4.48509 6.6399 3.47176 5.3999 3.47176C4.80228 3.47176 4.22913 3.70916 3.80655 4.13174C3.38397 4.55433 3.14656 5.12747 3.14656 5.72509C3.14656 6.96509 4.1599 7.96509 5.3999 7.96509ZM7.25323 21.2184V10.0584H3.5599V21.2184H7.25323Z" fill="#FFFBFB"/>
</svg>
