<svg width="28" height="27" viewBox="0 0 28 27" fill="none" xmlns="http://www.w3.org/2000/svg">
<path d="M9.94673 26.2718C11.2267 26.6585 12.5201 26.8852 13.8934 26.8852C17.4296 26.8852 20.821 25.4804 23.3215 22.9799C25.822 20.4794 27.2267 17.0881 27.2267 13.5518C27.2267 11.8009 26.8819 10.0671 26.2118 8.44939C25.5417 6.83172 24.5596 5.36186 23.3215 4.12375C22.0834 2.88563 20.6135 1.90351 18.9958 1.23345C17.3782 0.563383 15.6444 0.218506 13.8934 0.218506C12.1424 0.218506 10.4086 0.563383 8.79095 1.23345C7.17327 1.90351 5.70342 2.88563 4.4653 4.12375C1.96482 6.62423 0.560059 10.0156 0.560059 13.5518C0.560059 19.2185 4.12006 24.0852 9.14672 26.0052C9.02672 24.9652 8.90672 23.2452 9.14672 22.0585L10.6801 15.4718C10.6801 15.4718 10.2934 14.6985 10.2934 13.4718C10.2934 11.6318 11.4401 10.2585 12.7467 10.2585C13.8934 10.2585 14.4267 11.0985 14.4267 12.1785C14.4267 13.3252 13.6667 14.9652 13.2801 16.5385C13.0534 17.8452 13.9734 18.9918 15.3067 18.9918C17.6801 18.9918 19.5201 16.4585 19.5201 12.8852C19.5201 9.68517 17.2267 7.49851 13.9334 7.49851C10.1734 7.49851 7.96006 10.2985 7.96006 13.2452C7.96006 14.3918 8.33339 15.5518 8.94673 16.3118C9.06673 16.3918 9.06673 16.4985 9.02673 16.6985L8.64006 18.1518C8.64006 18.3785 8.49339 18.4585 8.26673 18.2985C6.56006 17.5518 5.57339 15.1252 5.57339 13.1652C5.57339 8.95184 8.56006 5.12517 14.3201 5.12517C18.9067 5.12517 22.4801 8.41851 22.4801 12.7918C22.4801 17.3785 19.6401 21.0585 15.5734 21.0585C14.2801 21.0585 13.0134 20.3652 12.5601 19.5518L11.6667 22.7118C11.3601 23.8585 10.5201 25.3918 9.94673 26.3118V26.2718Z" fill="#FFFBFB"/>
</svg>
