<svg width="22" height="25" viewBox="0 0 22 25" fill="none" xmlns="http://www.w3.org/2000/svg">
<path d="M16.8132 4.31176C15.9018 3.27125 15.3995 1.935 15.3999 0.551758H11.2799V17.0851C11.2481 17.9798 10.8704 18.8273 10.2262 19.449C9.58211 20.0708 8.72183 20.4183 7.82656 20.4184C5.93323 20.4184 4.3599 18.8718 4.3599 16.9518C4.3599 14.6584 6.57323 12.9384 8.85323 13.6451V9.43176C4.25323 8.81842 0.226562 12.3918 0.226562 16.9518C0.226562 21.3918 3.90656 24.5518 7.81323 24.5518C11.9999 24.5518 15.3999 21.1518 15.3999 16.9518V8.56509C17.0706 9.76489 19.0764 10.4086 21.1332 10.4051V6.28509C21.1332 6.28509 18.6266 6.40509 16.8132 4.31176Z" fill="#FFFBFB"/>
</svg>
