<svg width="28" height="23" viewBox="0 0 28 23" fill="none" xmlns="http://www.w3.org/2000/svg">
<path d="M27.8933 2.88517C26.8667 3.35184 25.76 3.65851 24.6133 3.80517C25.7867 3.09851 26.6933 1.97851 27.12 0.631839C26.0133 1.29851 24.7867 1.76517 23.4933 2.03184C22.44 0.885173 20.96 0.218506 19.28 0.218506C16.1467 0.218506 13.5867 2.77851 13.5867 5.93851C13.5867 6.39184 13.64 6.83184 13.7333 7.24517C8.98667 7.00517 4.76 4.72517 1.94667 1.27184C1.45333 2.11184 1.17333 3.09851 1.17333 4.13851C1.17333 6.12517 2.17333 7.88517 3.72 8.88517C2.77333 8.88517 1.89333 8.61851 1.12 8.21851V8.25851C1.12 11.0318 3.09333 13.3518 5.70667 13.8718C4.86764 14.1015 3.98679 14.1334 3.13333 13.9652C3.49548 15.1018 4.20472 16.0964 5.16136 16.8091C6.11799 17.5218 7.27393 17.9168 8.46667 17.9385C6.44484 19.5391 3.93866 20.4043 1.36 20.3918C0.906667 20.3918 0.453333 20.3652 0 20.3118C2.53333 21.9385 5.54667 22.8852 8.77333 22.8852C19.28 22.8852 25.0533 14.1652 25.0533 6.60517C25.0533 6.35184 25.0533 6.11184 25.04 5.85851C26.16 5.05851 27.12 4.04517 27.8933 2.88517Z" fill="#FFFBFB"/>
</svg>
