<svg width="28" height="19" viewBox="0 0 28 19" fill="none" xmlns="http://www.w3.org/2000/svg">
<path d="M11.56 13.5518L18.48 9.55184L11.56 5.55184V13.5518ZM26.9733 3.11184C27.1466 3.73851 27.2666 4.57851 27.3466 5.64517C27.44 6.71184 27.48 7.63184 27.48 8.43184L27.56 9.55184C27.56 12.4718 27.3466 14.6185 26.9733 15.9918C26.64 17.1918 25.8666 17.9652 24.6666 18.2985C24.04 18.4718 22.8933 18.5918 21.1333 18.6718C19.4 18.7652 17.8133 18.8052 16.3466 18.8052L14.2266 18.8852C8.63998 18.8852 5.15998 18.6718 3.78664 18.2985C2.58664 17.9652 1.81331 17.1918 1.47998 15.9918C1.30664 15.3652 1.18664 14.5252 1.10664 13.4585C1.01331 12.3918 0.97331 11.4718 0.97331 10.6718L0.893311 9.55184C0.893311 6.63184 1.10664 4.48517 1.47998 3.11184C1.81331 1.91184 2.58664 1.13851 3.78664 0.805173C4.41331 0.631839 5.55998 0.511839 7.31998 0.431839C9.05331 0.338506 10.64 0.298506 12.1066 0.298506L14.2266 0.218506C19.8133 0.218506 23.2933 0.431839 24.6666 0.805173C25.8666 1.13851 26.64 1.91184 26.9733 3.11184Z" fill="#FFFBFB"/>
</svg>
