<svg width="512" height="512" viewBox="0 0 512 512" fill="none" xmlns="http://www.w3.org/2000/svg">
<path opacity="0.3" d="M318.52 79.5973L318.521 79.5973H318.521C318.712 79.5966 318.912 79.5956 319.12 79.5945C322.683 79.5764 328.819 79.5452 335.525 80.8996C337.434 81.2844 339.389 81.7814 341.344 82.4227C348.947 84.9164 355.934 88.9937 361.844 94.3856C368.7 100.64 372.998 108.334 375.229 112.328L375.368 112.578C375.403 112.641 375.438 112.703 375.472 112.765L375.525 112.858L375.525 112.859L375.527 112.862L375.531 112.869L375.533 112.874C375.74 113.243 375.925 113.571 376.102 113.885L376.105 113.891L437.558 222.623L437.559 222.625L437.592 222.683L437.592 222.683L437.62 222.732C437.802 223.054 437.993 223.391 438.211 223.773L438.212 223.774L438.212 223.774C438.303 223.935 438.4 224.103 438.5 224.278C440.708 228.141 444.96 235.577 446.806 244.423C448.398 252.051 448.398 259.926 446.806 267.555C444.96 276.4 440.708 283.837 438.5 287.7L437.62 289.246L376.127 398.047L376.127 398.048C375.943 398.373 375.753 398.712 375.537 399.098L375.534 399.102L375.522 399.124L375.52 399.129C375.427 399.294 375.33 399.468 375.229 399.649C372.998 403.643 368.7 411.338 361.844 417.592C355.934 422.984 348.947 427.061 341.344 429.555C332.526 432.447 323.713 432.403 319.139 432.379C318.93 432.378 318.731 432.377 318.54 432.376L318.53 432.376L318.526 432.376H318.523C318.363 432.376 318.21 432.375 318.062 432.375C317.964 432.375 317.869 432.374 317.775 432.374C317.614 432.374 317.457 432.373 317.303 432.373H194.716C194.614 432.373 194.511 432.374 194.406 432.374C194.214 432.374 194.015 432.375 193.804 432.375L193.513 432.376L193.493 432.376L193.489 432.376L193.479 432.376C193.289 432.377 193.089 432.378 192.88 432.379C189.312 432.397 183.165 432.429 176.449 431.069C174.548 430.685 172.602 430.189 170.656 429.551C163.053 427.057 156.066 422.98 150.156 417.588C143.3 411.334 139.002 403.639 136.771 399.645C136.67 399.464 136.573 399.29 136.48 399.125L136.466 399.098L136.463 399.094C136.247 398.708 136.057 398.369 135.873 398.044L135.873 398.043L74.3804 289.242L73.5002 287.696C71.2919 283.833 67.0403 276.397 65.1942 267.551C63.6019 259.923 63.6019 252.047 65.1942 244.419C67.0403 235.573 71.2918 228.137 73.5 224.274C73.6004 224.099 73.6965 223.931 73.788 223.77L73.7882 223.77C74.0063 223.387 74.1981 223.05 74.3802 222.728L74.4078 222.68L74.4082 222.679L74.441 222.621L74.4417 222.62L74.6759 222.205L74.676 222.205L135.895 113.887L135.898 113.882C136.076 113.568 136.26 113.239 136.467 112.87L136.469 112.866L136.473 112.858L136.475 112.855L136.475 112.854L136.479 112.848C136.529 112.759 136.58 112.667 136.632 112.574C136.678 112.492 136.724 112.409 136.771 112.324C139.002 108.33 143.3 100.636 150.156 94.3818C156.066 88.9899 163.054 84.9125 170.656 82.4189C179.474 79.5265 188.287 79.5713 192.861 79.5945L192.861 79.5945C193.07 79.5956 193.27 79.5966 193.46 79.5973L193.461 79.5973C193.915 79.5989 194.315 79.6003 194.697 79.6003H317.284C317.666 79.6003 318.066 79.5989 318.52 79.5973H318.52Z" fill="#F4F900"/>
<path d="M193.422 412.392C193.865 412.391 194.297 412.389 194.717 412.389H256.055H275.175H317.305C317.725 412.389 318.157 412.391 318.6 412.392L318.614 412.392C323.404 412.41 329.428 412.431 335.113 410.567C340.028 408.954 344.546 406.318 348.368 402.831C352.789 398.799 355.734 393.543 358.076 389.364C358.276 389.008 358.471 388.659 358.663 388.32L358.718 388.223L358.718 388.223L420.21 279.421C420.344 279.184 420.48 278.944 420.619 278.7L420.837 278.317C423.142 274.274 426.04 269.188 427.23 263.484C428.26 258.55 428.26 253.457 427.23 248.523C426.04 242.82 423.142 237.734 420.838 233.69L420.838 233.69L420.837 233.69C420.623 233.313 420.413 232.945 420.21 232.587L420.21 232.587L420.19 232.55L420.169 232.513L420.169 232.513L358.718 123.785C358.51 123.417 358.298 123.039 358.08 122.651L358.076 122.643C355.734 118.464 352.789 113.208 348.368 109.176C344.546 105.689 340.028 103.053 335.113 101.44C329.428 99.5756 323.404 99.5974 318.614 99.6148L318.613 99.6148L318.613 99.6148C318.166 99.6164 317.729 99.618 317.305 99.618H194.717C194.293 99.618 193.856 99.6164 193.409 99.6148L193.408 99.6148C188.618 99.5974 182.594 99.5756 176.909 101.44C171.994 103.053 167.476 105.689 163.654 109.176C159.233 113.208 156.288 118.464 153.946 122.643L153.943 122.647C153.734 123.021 153.53 123.386 153.329 123.74L91.8728 232.478L91.8726 232.479L91.8117 232.587L91.8116 232.587C91.6094 232.945 91.4001 233.312 91.1857 233.688L91.1845 233.69C88.8803 237.734 85.9823 242.819 84.7918 248.523C83.7621 253.457 83.7621 258.55 84.7918 263.484C85.9823 269.188 88.8804 274.274 91.1846 278.317L91.1875 278.322C91.4013 278.697 91.61 279.064 91.8117 279.421L153.304 388.223C153.513 388.592 153.726 388.973 153.945 389.363L153.946 389.364C156.288 393.543 159.233 398.799 163.654 402.832C167.476 406.318 171.994 408.954 176.909 410.567C182.594 412.432 188.618 412.41 193.408 412.392L193.422 412.392Z" fill="#F4F900"/>
<path fill-rule="evenodd" clip-rule="evenodd" d="M329.101 163.941L310.917 196.108C302.968 210.168 298.994 217.198 299.637 222.958C300.197 227.983 302.854 232.538 306.953 235.498C311.651 238.892 319.727 238.892 335.878 238.892H370.197C386.348 238.892 394.423 238.892 399.122 242.286C403.22 245.247 405.878 249.802 406.438 254.827C407.08 260.587 403.106 267.617 395.158 281.677L395.158 281.677L341.008 377.464L341.008 377.465L341.007 377.465C338.01 382.767 336.511 385.418 334.396 387.347C332.524 389.055 330.311 390.345 327.904 391.135C325.183 392.027 322.138 392.027 316.047 392.027H208.135C191.984 392.027 183.909 392.027 179.211 388.633C175.112 385.672 172.455 381.118 171.894 376.092C171.252 370.332 175.226 363.302 183.174 349.243L201.108 317.519C209.056 303.459 213.031 296.429 212.388 290.669C211.828 285.644 209.171 281.089 205.072 278.128C200.374 274.734 192.298 274.734 176.147 274.734H141.828C125.677 274.734 117.601 274.734 112.903 271.34C108.804 268.379 106.147 263.825 105.587 258.8C104.944 253.04 108.918 246.01 116.867 231.95L165.285 146.302C170.156 137.686 181.089 134.65 189.705 139.521C198.321 144.391 201.357 155.325 196.486 163.941L178.301 196.108C170.353 210.168 166.379 217.198 167.022 222.958C167.582 227.983 170.239 232.538 174.338 235.498C179.036 238.892 187.112 238.892 203.262 238.892H228.829C234.92 238.892 237.965 238.892 240.686 238C243.093 237.211 245.306 235.92 247.177 234.213C249.293 232.283 250.792 229.632 253.79 224.33L297.9 146.302C302.771 137.686 313.704 134.65 322.32 139.521C330.936 144.391 333.972 155.325 329.101 163.941ZM251.14 356.185H301.409C307.87 356.185 313.83 352.708 317.01 347.083L342.793 301.475C349.547 289.528 340.916 274.734 327.193 274.734H276.923C270.462 274.734 264.502 278.212 261.322 283.836L235.539 329.445C228.785 341.391 237.416 356.185 251.14 356.185Z" fill="#131010"/>
<path d="M445.512 239.509C412.638 271.452 363.067 307.835 304.569 341.189C246.002 374.581 189.379 398.726 145.123 410.731C144.783 410.824 144.443 410.915 144.104 411.006C141.024 407.068 138.785 403.23 137.285 400.562C141.615 399.598 146.12 398.481 150.788 397.215C191.825 386.084 244.663 363.587 299.51 332.315C354.357 301.044 400.63 267.032 431.111 237.387C434.438 234.151 437.569 230.975 440.499 227.865C442.141 230.937 444.066 234.942 445.512 239.509Z" fill="black" fill-opacity="0.5"/>
<path d="M82.8305 304.196C51.2531 335.274 36.0209 361.835 44.503 376.712C61.7413 406.946 170.398 377.472 287.194 310.88C403.991 244.287 484.699 165.794 467.46 135.56C459.012 120.742 428.604 120.266 386.041 131.473L388.706 136.19C423.433 128.316 447.944 129.798 455.211 142.544C471.451 171.027 395.418 244.974 285.386 307.709C175.355 370.444 72.9923 398.211 56.7525 369.728C49.4526 356.925 60.7971 334.935 85.4931 308.907L82.8305 304.196Z" fill="#00C1FF"/>
<path d="M81.1596 301.238C65.2019 316.868 53.153 331.536 46.0987 344.346C39.0153 357.208 36.4413 369.198 41.6528 378.339C46.8642 387.479 58.4941 391.371 73.1706 391.827C88.0681 392.289 107.271 389.27 129.375 383.274C173.631 371.269 230.254 347.124 288.821 313.732C347.388 280.339 397.007 243.909 429.879 211.939C446.297 195.971 458.676 180.984 465.866 167.928C472.95 155.066 475.524 143.075 470.312 133.935C465.101 124.794 453.471 120.902 438.795 120.447C424.299 119.997 405.727 122.843 384.372 128.52L386.042 131.474C428.605 120.267 459.013 120.742 467.461 135.56C484.699 165.795 403.992 244.288 287.195 310.881C170.399 377.473 61.7422 406.947 44.504 376.713C36.0218 361.836 51.2541 335.275 82.8315 304.196L81.1596 301.238Z" fill="#00C1FF" fill-opacity="0.3"/>
<path d="M85.4941 308.907C60.798 334.936 49.4535 356.926 56.7534 369.729C72.9932 398.212 175.356 370.445 285.387 307.71C395.419 244.974 471.451 171.027 455.212 142.544C447.945 129.799 423.434 128.317 388.707 136.191L390.394 139.175C405.137 135.889 417.847 134.362 428.008 134.677C441.366 135.092 449.202 138.631 452.361 144.17C455.519 149.709 454.573 158.255 448.126 169.962C441.785 181.476 430.622 195.089 415.363 209.93C384.881 239.575 338.608 273.587 283.762 304.858C228.915 336.13 176.076 358.627 135.039 369.758C114.496 375.331 97.0949 378.004 83.9573 377.596C70.5987 377.182 62.7627 373.642 59.6046 368.103C56.4465 362.564 57.3918 354.018 63.8391 342.311C68.7928 333.316 76.69 323.04 87.1841 311.898L85.4941 308.907Z" fill="#00C1FF" fill-opacity="0.3"/>
</svg>
