<svg width="37" height="37" viewBox="0 0 37 37" fill="none" xmlns="http://www.w3.org/2000/svg">
<path fill-rule="evenodd" clip-rule="evenodd" d="M9.2 6.9V9.2H4.6C3.38 9.2 2.20998 9.68464 1.34731 10.5473C0.484641 11.41 0 12.58 0 13.8V22.011C5.88886 24.1931 12.1199 25.3069 18.4 25.3C24.6801 25.3069 30.9111 24.1931 36.8 22.011V13.8C36.8 12.58 36.3154 11.41 35.4527 10.5473C34.59 9.68464 33.42 9.2 32.2 9.2H27.6V6.9C27.6 5.07001 26.873 3.31496 25.579 2.02096C24.285 0.726962 22.53 0 20.7 0H16.1C14.27 0 12.515 0.726962 11.221 2.02096C9.92696 3.31496 9.2 5.07001 9.2 6.9ZM14.4737 5.27365C14.0423 5.70499 13.8 6.29 13.8 6.9V9.2H23V6.9C23 6.29 22.7577 5.70499 22.3263 5.27365C21.895 4.84232 21.31 4.6 20.7 4.6H16.1C15.49 4.6 14.905 4.84232 14.4737 5.27365ZM16.7737 16.7737C16.3423 17.205 16.1 17.79 16.1 18.4C16.1 19.01 16.3423 19.595 16.7737 20.0263C17.205 20.4577 17.79 20.7 18.4 20.7H18.423C19.033 20.7 19.618 20.4577 20.0493 20.0263C20.4807 19.595 20.723 19.01 20.723 18.4C20.723 17.79 20.4807 17.205 20.0493 16.7737C19.618 16.3423 19.033 16.1 18.423 16.1H18.4C17.79 16.1 17.205 16.3423 16.7737 16.7737Z" fill="#F8FDFF"/>
<path d="M0 32.2V26.8909C5.78067 28.842 11.9696 29.9 18.4 29.9C24.6563 29.9057 30.8715 28.8892 36.8 26.8909V32.2C36.8 33.42 36.3154 34.5901 35.4527 35.4527C34.59 36.3154 33.42 36.8 32.2 36.8H4.6C3.38 36.8 2.20998 36.3154 1.34731 35.4527C0.484641 34.5901 0 33.42 0 32.2Z" fill="#F8FDFF"/>
</svg>
