<svg width="51" height="33" viewBox="0 0 51 33" fill="none" xmlns="http://www.w3.org/2000/svg">
<rect y="0.0195312" width="51" height="32.0249" rx="16.0124" fill="#21A3D9"/>
<path d="M20.12 14.821C21.56 17.6532 23.88 19.965 26.71 21.4161L28.91 19.2144C29.18 18.9442 29.58 18.8541 29.93 18.9742C31.05 19.3445 32.26 19.5446 33.5 19.5446C34.05 19.5446 34.5 19.995 34.5 20.5454V24.0381C34.5 24.5886 34.05 25.0389 33.5 25.0389C24.11 25.0389 16.5 17.423 16.5 8.02568C16.5 7.47525 16.95 7.0249 17.5 7.0249H21C21.55 7.0249 22 7.47525 22 8.02568C22 9.27665 22.2 10.4776 22.57 11.5985C22.68 11.9487 22.6 12.339 22.32 12.6192L20.12 14.821Z" fill="#FFFBFB"/>
</svg>
