<svg width="33" height="37" viewBox="0 0 33 37" fill="none" xmlns="http://www.w3.org/2000/svg">
<path fill-rule="evenodd" clip-rule="evenodd" d="M20.9781 30.1768C20.0139 31.1432 18.7845 31.8017 17.4457 32.0688C16.1069 32.3359 14.7189 32.1997 13.4576 31.6773C12.1963 31.1549 11.1185 30.2699 10.3606 29.1345C9.60265 27.999 9.19881 26.6641 9.2002 25.2989C9.2002 25.2989 11.2223 26.4489 14.9502 26.4489C14.9502 24.1489 16.1002 17.2489 17.8252 16.0989C18.9752 18.3989 19.6326 19.0736 20.9781 20.421C21.6202 21.0605 22.1294 21.8208 22.4764 22.658C22.8235 23.4951 23.0015 24.3927 23.0002 25.2989C23.0002 27.0661 22.3255 28.8313 20.9781 30.1768Z" fill="#F8FDFF"/>
<path fill-rule="evenodd" clip-rule="evenodd" d="M20.1403 0.0754857C20.4559 0.159208 20.7501 0.309163 21.0032 0.515379C21.2564 0.721594 21.4627 0.979344 21.6085 1.27149C22.7202 3.49482 23.5501 4.84415 24.3838 5.94049C25.231 7.04832 26.1242 7.95299 27.485 9.31382C28.9815 10.8078 30.1684 12.5826 30.9775 14.5363C31.7866 16.49 32.202 18.5842 32.2 20.6988C32.1081 24.908 30.3716 28.9138 27.3622 31.8581C24.3529 34.8025 20.3102 36.4513 16.1 36.4513C11.8898 36.4513 7.84711 34.8025 4.83778 31.8581C1.82845 28.9138 0.0918567 24.908 0 20.6988C0 16.5818 1.57167 12.4572 4.715 9.31382C5.03665 8.99257 5.44629 8.77384 5.89218 8.68526C6.33807 8.59668 6.80021 8.64222 7.22023 8.81614C7.64025 8.99005 7.99932 9.28454 8.25207 9.6624C8.50482 10.0403 8.63993 10.4845 8.64033 10.9392C8.64033 13.5152 8.80133 15.4778 9.5565 17.0437C9.9705 17.9043 10.6164 18.7457 11.73 19.4971C12.042 16.7281 12.5136 13.9795 13.1426 11.265C13.6601 9.04165 14.3041 6.82599 15.0727 4.9764C15.456 4.04874 15.8911 3.1709 16.3837 2.40807C16.8628 1.66824 17.4762 0.916902 18.2735 0.385986C18.545 0.205096 18.8519 0.0840312 19.1737 0.0308279C19.4956 -0.0223753 19.8251 -0.00841583 20.1403 0.0754857ZM20.9781 30.1768C20.0139 31.1432 18.7845 31.8017 17.4457 32.0688C16.1069 32.3359 14.7189 32.1997 13.4576 31.6773C12.1963 31.1549 11.1185 30.2699 10.3606 29.1345C9.60265 27.999 9.19881 26.6641 9.2002 25.2989C9.2002 25.2989 11.2223 26.4489 14.9502 26.4489C14.9502 24.1489 16.1002 17.2489 17.8252 16.0989C18.9752 18.3989 19.6326 19.0736 20.9781 20.421C21.6202 21.0605 22.1294 21.8208 22.4764 22.658C22.8235 23.4951 23.0015 24.3927 23.0002 25.2989C23.0002 27.0661 22.3255 28.8313 20.9781 30.1768Z" fill="#FF7917"/>
</svg>
