<svg width="50" height="31" viewBox="0 0 50 31" fill="none" xmlns="http://www.w3.org/2000/svg">
<path d="M9.12126 0.260461C8.50382 -0.0170575 7.80143 -0.0379595 7.16858 0.20235C6.53574 0.442658 6.02425 0.924498 5.74664 1.5419L0.225232 13.8024C-0.0526114 14.4192 -0.0742524 15.121 0.165064 15.7538C0.404382 16.3865 0.885082 16.8984 1.50156 17.177L5.30503 18.8898C5.61058 19.0278 5.94031 19.1042 6.2754 19.1147C6.57998 19.1243 6.88356 19.0793 7.17182 18.982C8.3504 20.0848 9.5371 21.1789 10.7319 22.2642C11.871 23.3029 13.0267 24.3232 14.1985 25.3249C14.7217 25.7716 15.2068 26.1672 15.6203 26.4863C15.9672 26.7665 16.3379 27.0159 16.7281 27.2317L16.7869 27.2598L23.9854 29.9579C25.1322 30.3882 26.3787 30.4793 27.5759 30.2204C28.7731 29.9615 29.8706 29.3635 30.7372 28.4978L36.0722 23.1628C36.273 22.9623 36.4001 22.7019 36.4363 22.4236C36.8623 22.381 37.2701 22.2774 37.6344 22.1546C38.5483 21.8483 39.457 21.3275 40.2305 20.8144C41.0634 20.2551 41.8583 19.6412 42.6097 18.9769C43.2002 19.2114 43.8584 19.2177 44.4552 18.9919L48.3557 17.5139L48.3531 17.5114C48.6666 17.3924 48.9535 17.2129 49.1976 16.983C49.4416 16.7531 49.638 16.4774 49.7755 16.1716C49.913 15.8658 49.9889 15.5359 49.9989 15.2008C50.0089 14.8657 49.9527 14.5319 49.8337 14.2184L45.073 1.64911C44.9542 1.33543 44.7749 1.04821 44.5451 0.803888C44.3153 0.559558 44.0396 0.362908 43.7338 0.225171C43.428 0.0874375 43.0981 0.0113195 42.7628 0.00116945C42.4276 -0.00898155 42.0936 0.0470334 41.78 0.166013L37.8821 1.64401C37.7302 1.70165 37.5846 1.77351 37.447 1.85843L37.2745 1.87622C35.982 1.99904 34.6918 2.14541 33.4047 2.31527C32.0053 2.49841 30.3995 2.74202 28.94 3.04551C28.1645 2.66591 27.3825 2.29987 26.5942 1.94756C25.8641 1.62592 25.0753 1.29407 24.3759 1.03881C24.0288 0.911168 23.6867 0.798858 23.3753 0.714618C23.0868 0.638038 22.7371 0.561458 22.4053 0.561458C22.0428 0.561458 21.5986 0.673778 21.2515 0.775878C20.8481 0.890748 20.3657 1.04902 19.8475 1.23281C18.6715 1.655 17.5039 2.1001 16.3452 2.56785C15.6519 2.84644 14.9599 3.12832 14.2692 3.41347L14.2638 3.39904C14.0245 2.76629 13.5438 2.25441 12.9273 1.97585L9.12381 0.263013L9.12126 0.260461Z" fill="#F8FDFF"/>
<path fill-rule="evenodd" clip-rule="evenodd" d="M7.16858 0.20235C7.80143 -0.0379595 8.50382 -0.0170575 9.12126 0.260461L9.12381 0.263013L12.9273 1.97585C13.5438 2.25441 14.0245 2.76629 14.2638 3.39904C14.2656 3.40384 14.2674 3.40865 14.2692 3.41347C14.9599 3.12832 15.6519 2.84644 16.3452 2.56785C17.5039 2.1001 18.6715 1.655 19.8475 1.23281C20.3657 1.04902 20.8481 0.890748 21.2515 0.775878C21.5986 0.673778 22.0428 0.561458 22.4053 0.561458C22.7371 0.561458 23.0868 0.638038 23.3753 0.714618C23.6867 0.798858 24.0288 0.911168 24.3759 1.03881C25.0753 1.29407 25.8641 1.62592 26.5942 1.94756C27.3825 2.29987 28.1645 2.66591 28.94 3.04551C30.3995 2.74202 32.0053 2.49841 33.4047 2.31527C34.6918 2.14541 35.982 1.99904 37.2745 1.87622L37.447 1.85843C37.5846 1.77351 37.7302 1.70165 37.8821 1.64401L41.78 0.166013C42.0936 0.0470334 42.4276 -0.00898155 42.7628 0.00116945C43.0981 0.0113195 43.428 0.0874375 43.7338 0.225171C44.0396 0.362908 44.3153 0.559558 44.5451 0.803888C44.7749 1.04821 44.9542 1.33543 45.073 1.64911L49.8337 14.2184C49.9527 14.5319 50.0089 14.8657 49.9989 15.2008C49.9889 15.5359 49.913 15.8658 49.7755 16.1716C49.638 16.4774 49.4416 16.7531 49.1976 16.983C48.9535 17.2129 48.6666 17.3924 48.3531 17.5114L48.3557 17.5139L44.4552 18.9919C43.8584 19.2177 43.2002 19.2114 42.6097 18.9769C41.8583 19.6412 41.0634 20.2551 40.2305 20.8144C39.457 21.3275 38.5483 21.8483 37.6344 22.1546C37.2701 22.2774 36.8623 22.381 36.4363 22.4236C36.4001 22.7019 36.273 22.9623 36.0722 23.1628L30.7372 28.4978C29.8706 29.3635 28.7731 29.9615 27.5759 30.2204C26.3787 30.4793 25.1322 30.3882 23.9854 29.9579L16.7869 27.2598L16.7281 27.2317C16.3379 27.0159 15.9672 26.7665 15.6203 26.4863C15.2068 26.1672 14.7217 25.7716 14.1985 25.3249C13.0267 24.3232 11.871 23.3029 10.7319 22.2642C9.5371 21.1789 8.3504 20.0848 7.17182 18.982C6.88356 19.0793 6.57998 19.1243 6.2754 19.1147C5.94031 19.1042 5.61058 19.0278 5.30503 18.8898L1.50156 17.177C0.885082 16.8984 0.404382 16.3865 0.165064 15.7538C-0.0742524 15.121 -0.0526114 14.4192 0.225232 13.8024L5.74664 1.5419C6.02425 0.924498 6.53574 0.442658 7.16858 0.20235ZM8.90813 17.1117C10.0792 18.2071 11.2581 19.2941 12.4448 20.3727C13.619 21.4372 14.8315 22.5169 15.8475 23.3797C16.358 23.8111 16.8098 24.1787 17.1749 24.4621C17.5118 24.7199 17.7237 24.8628 17.8283 24.9215V24.9241L24.8813 27.5686C25.5696 27.8265 26.3176 27.8809 27.036 27.7252C27.7543 27.5695 28.4127 27.2103 28.9324 26.6905L34.0061 21.6168C33.2897 20.8926 32.5607 20.1808 31.8195 19.4819C31.1481 18.8514 30.4283 18.1954 29.7646 17.6389C29.157 17.1309 28.649 16.748 28.284 16.526C28.2684 16.5349 28.2531 16.5442 28.2381 16.554L25.688 18.2005C23.6535 19.7117 21.6624 19.9133 19.9343 19.3952C18.2801 18.8948 17.0038 17.7768 16.187 16.8935C14.931 15.5253 15.1786 13.5955 16.2482 12.3855C17.7205 10.7113 19.2699 9.10643 20.8915 7.57631C21.7755 6.74103 22.708 5.95856 23.6841 5.23297C24.2232 4.83818 24.7776 4.47319 25.328 4.17939C24.7279 3.91458 24.1201 3.66745 23.5055 3.43831C23.2463 3.34208 22.9831 3.25692 22.7167 3.18304C22.617 3.15429 22.5155 3.13212 22.4129 3.11667L22.3899 3.12178C22.3389 3.12944 22.2036 3.15752 21.9509 3.22899C21.5284 3.35379 21.1095 3.49084 20.695 3.63997C19.7045 3.98968 18.4869 4.46193 17.2948 4.93927C16.1022 5.41694 14.9138 5.90494 13.7296 6.40323L8.90813 17.1117ZM28.925 5.66097C28.2982 5.80261 27.727 5.95384 27.2476 6.11363C26.7192 6.28977 26.0198 6.68543 25.1876 7.29296C24.3733 7.88773 23.5003 8.63566 22.6299 9.44488C21.069 10.9192 19.5775 12.4652 18.1602 14.078C17.7926 14.494 17.8538 14.9357 18.0657 15.1654C18.7422 15.9006 19.6484 16.6459 20.6694 16.9523C21.6114 17.2356 22.7754 17.1948 24.1921 16.1329L24.2278 16.1073L26.852 14.4124C27.3829 14.0678 28.3683 13.6593 29.374 14.2107C29.979 14.5425 30.7039 15.099 31.4008 15.6861C32.1207 16.286 32.8814 16.9778 33.5706 17.6262C34.0071 18.0386 34.4394 18.4556 34.8673 18.877C35.2061 19.2094 35.5422 19.5449 35.8755 19.8828C36.0466 19.9108 36.3427 19.8981 36.8175 19.7372C37.4301 19.533 38.127 19.1501 38.8162 18.6907C39.5727 18.1802 40.2949 17.6207 40.9781 17.0159L36.4016 4.93694C36.3524 4.80753 36.314 4.67464 36.2865 4.53962C35.437 4.63013 34.5887 4.73107 33.7416 4.84241C32.2351 5.04182 30.5944 5.29844 29.1943 5.60143C29.1929 5.60192 29.1914 5.6024 29.19 5.60289C29.1033 5.63183 29.0144 5.65115 28.925 5.66097ZM35.2429 20.9842C35.2431 20.9842 35.2427 20.9841 35.2429 20.9842ZM5.25643 15.5455C5.02818 15.5385 4.80356 15.4865 4.59539 15.3927C4.17497 15.2031 3.84707 14.8543 3.68382 14.423C3.52058 13.9916 3.53537 13.5131 3.72493 13.0927C3.91449 12.6723 4.2633 12.3444 4.69463 12.1812C5.12595 12.0179 5.60446 12.0327 6.02488 12.2223C6.23305 12.3161 6.4207 12.4501 6.5771 12.6164C6.73351 12.7828 6.85561 12.9784 6.93644 13.192C7.01727 13.4055 7.05525 13.6329 7.04819 13.8612C7.04114 14.0894 6.9892 14.314 6.89534 14.5222C6.80148 14.7304 6.66753 14.918 6.50115 15.0744C6.33477 15.2308 6.13921 15.3529 5.92564 15.4338C5.71207 15.5146 5.48467 15.5526 5.25643 15.5455ZM40.2806 3.9718C40.4469 3.81529 40.6424 3.69306 40.856 3.61211C41.2872 3.44861 41.7658 3.46312 42.1863 3.65246C42.6069 3.84179 42.935 4.19043 43.0985 4.62169C43.262 5.05294 43.2475 5.53148 43.0581 5.95203C42.8688 6.37259 42.5202 6.7007 42.0889 6.8642C41.8754 6.94516 41.648 6.98326 41.4197 6.97634C41.1914 6.96941 40.9668 6.9176 40.7585 6.82385C40.5503 6.7301 40.3626 6.59626 40.2061 6.42996C40.0496 6.26366 39.9273 6.06816 39.8464 5.85462C39.7654 5.64109 39.7273 5.4137 39.7342 5.18544C39.7412 4.95717 39.793 4.73251 39.8867 4.52427C39.9805 4.31604 40.1143 4.12831 40.2806 3.9718Z" fill="#232323"/>
</svg>
