<svg width="30" height="30" viewBox="0 0 30 30" fill="none" xmlns="http://www.w3.org/2000/svg">
<path d="M15.0001 14.7797L0.00636889 7.28125C0.0621774 6.32616 0.480919 5.42852 1.17688 4.77206C1.87285 4.1156 2.7934 3.74997 3.75012 3.75H26.2501C27.2074 3.75001 28.1283 4.11608 28.8244 4.7732C29.5204 5.43031 29.9388 6.32873 29.9939 7.28437L15.0001 14.7797Z" fill="#21A3D9"/>
<path d="M15 18.9719L30 11.4719V22.5C30 23.4946 29.6049 24.4484 28.9017 25.1517C28.1984 25.8549 27.2446 26.25 26.25 26.25H3.75C2.75544 26.25 1.80161 25.8549 1.09835 25.1517C0.395088 24.4484 0 23.4946 0 22.5V11.4719L15 18.9719Z" fill="#21A3D9"/>
</svg>
