<svg width="30" height="30" viewBox="0 0 30 30" fill="none" xmlns="http://www.w3.org/2000/svg">
<path fill-rule="evenodd" clip-rule="evenodd" d="M6.21312 3.63961C8.54352 1.30921 11.7042 -3.47257e-08 14.9999 0C18.2956 3.47257e-08 21.4563 1.30921 23.7867 3.63961C26.1171 5.97001 27.4263 9.13072 27.4263 12.4264C27.4263 15.7221 26.1171 18.8828 23.7867 21.2132L14.9999 30L6.21312 21.2132C5.05914 20.0593 4.14375 18.6895 3.51922 17.1818C2.89469 15.6742 2.57324 14.0583 2.57324 12.4264C2.57324 10.7945 2.89469 9.17862 3.51922 7.67098C4.14375 6.16333 5.05914 4.79347 6.21312 3.63961ZM14.9999 15.9766C15.9415 15.9766 16.8445 15.6026 17.5103 14.9368C18.1761 14.271 18.5501 13.368 18.5501 12.4264C18.5501 11.4848 18.1761 10.5818 17.5103 9.91602C16.8445 9.25023 15.9415 8.87619 14.9999 8.87619C14.0583 8.87619 13.1553 9.25023 12.4895 9.91602C11.8237 10.5818 11.4497 11.4848 11.4497 12.4264C11.4497 13.368 11.8237 14.271 12.4895 14.9368C13.1553 15.6026 14.0583 15.9766 14.9999 15.9766Z" fill="#21A3D9"/>
</svg>
