<svg width="49" height="50" viewBox="0 0 49 50" fill="none" xmlns="http://www.w3.org/2000/svg">
<path fill-rule="evenodd" clip-rule="evenodd" d="M24.3176 0C17.9183 0 12.0886 2.0724 8.63887 3.76559C8.3272 3.91838 8.03677 4.06839 7.76618 4.21285C7.23067 4.49899 6.77449 4.76568 6.41181 5.00042L10.3361 10.6648L12.1835 11.3857C19.403 14.9568 29.0848 14.9568 36.3057 11.3857L38.4024 10.3189L42.1128 5.00042C41.3443 4.50879 40.5451 4.06482 39.72 3.67114C36.2873 1.996 30.595 0 24.3176 0ZM15.1911 6.41164C13.8015 6.15671 12.429 5.81902 11.0813 5.40045C14.3128 3.99339 19.1282 2.50021 24.3176 2.50021C27.9117 2.50021 31.3104 3.21694 34.1212 4.12534C30.8273 4.57955 27.3125 5.35045 23.9634 6.29914C21.3283 7.04642 18.2484 6.96586 15.1911 6.41164ZM37.8018 13.4456L37.4532 13.6178C29.5112 17.5459 18.9766 17.5459 11.0345 13.6178L10.7044 13.4539C-1.22706 26.2897 -10.3365 50 24.3176 50C58.9716 50 49.6397 25.8466 37.8018 13.4456ZM22.8456 25.0021C22.0941 25.0021 21.3734 25.2948 20.8421 25.8157C20.3107 26.3367 20.0122 27.0433 20.0122 27.7801C20.0122 28.5169 20.3107 29.2235 20.8421 29.7444C21.3734 30.2654 22.0941 30.5581 22.8456 30.5581V25.0021ZM25.679 22.2241V20.8351H22.8456V22.2241C21.3427 22.2241 19.9013 22.8094 18.8385 23.8514C17.7758 24.8933 17.1788 26.3065 17.1788 27.7801C17.1788 29.2536 17.7758 30.6668 18.8385 31.7088C19.9013 32.7507 21.3427 33.3361 22.8456 33.3361V38.8921C21.6131 38.8921 20.5633 38.1212 20.1723 37.0406C20.1143 36.8638 20.0207 36.7002 19.897 36.5595C19.7734 36.4188 19.6223 36.3038 19.4525 36.2213C19.2828 36.1389 19.0979 36.0906 18.9088 36.0795C18.7197 36.0683 18.5303 36.0944 18.3517 36.1563C18.1731 36.2182 18.0089 36.3145 17.869 36.4397C17.729 36.5648 17.6161 36.7162 17.5368 36.8849C17.4576 37.0536 17.4137 37.2362 17.4076 37.4218C17.4016 37.6074 17.4336 37.7924 17.5018 37.9657C17.8926 39.0491 18.6163 39.987 19.5733 40.6505C20.5303 41.3139 21.6735 41.6701 22.8456 41.6701V43.0591H25.679V41.6701C27.1819 41.6701 28.6233 41.0848 29.6861 40.0428C30.7488 39.0009 31.3458 37.5877 31.3458 36.1141C31.3458 34.6406 30.7488 33.2274 29.6861 32.1854C28.6233 31.1435 27.1819 30.5581 25.679 30.5581V25.0021C26.9115 25.0021 27.9613 25.773 28.3523 26.8536C28.4103 27.0304 28.5039 27.194 28.6276 27.3347C28.7512 27.4755 28.9023 27.5904 29.0721 27.6729C29.2418 27.7553 29.4267 27.8036 29.6158 27.8147C29.8049 27.8259 29.9943 27.7998 30.1729 27.7379C30.3515 27.676 30.5157 27.5797 30.6556 27.4545C30.7956 27.3294 30.9085 27.178 30.9878 27.0093C31.067 26.8406 31.1109 26.658 31.117 26.4724C31.123 26.2868 31.091 26.1018 31.0228 25.9285C30.632 24.8452 29.9083 23.9072 28.9513 23.2438C27.9943 22.5803 26.8511 22.2241 25.679 22.2241ZM25.679 33.3361V38.8921C26.4305 38.8921 27.1512 38.5994 27.6825 38.0785C28.2139 37.5575 28.5124 36.8509 28.5124 36.1141C28.5124 35.3773 28.2139 34.6707 27.6825 34.1498C27.1512 33.6288 26.4305 33.3361 25.679 33.3361Z" fill="#232323"/>
<path d="M11.0813 5.40045C12.429 5.81902 13.8015 6.15671 15.1911 6.41164C18.2484 6.96586 21.3283 7.04642 23.9634 6.29914C27.3125 5.35045 30.8273 4.57955 34.1212 4.12534C31.3104 3.21694 27.9117 2.50021 24.3176 2.50021C19.1282 2.50021 14.3128 3.99339 11.0813 5.40045Z" fill="#F8FDFF"/>
<path fill-rule="evenodd" clip-rule="evenodd" d="M25.679 20.8351V22.2241C26.8511 22.2241 27.9943 22.5803 28.9513 23.2438C29.9083 23.9072 30.632 24.8452 31.0228 25.9285C31.091 26.1018 31.123 26.2868 31.117 26.4724C31.1109 26.658 31.067 26.8406 30.9878 27.0093C30.9551 27.0794 30.9165 27.1465 30.8721 27.21C30.8101 27.2992 30.7371 27.3814 30.6556 27.4545C30.5853 27.5172 30.5093 27.5728 30.4282 27.6204C30.3472 27.6676 30.2618 27.707 30.1729 27.7379C30.0928 27.7657 30.0103 27.7863 29.9268 27.7996C29.8242 27.8158 29.7198 27.8209 29.6158 27.8147C29.4879 27.8071 29.3613 27.7826 29.2407 27.7418C29.1831 27.7224 29.1268 27.6994 29.0721 27.6729C28.9023 27.5904 28.7512 27.4755 28.6276 27.3347C28.5039 27.194 28.4103 27.0304 28.3523 26.8536C27.9613 25.773 26.9115 25.0021 25.679 25.0021V30.5581C27.1819 30.5581 28.6233 31.1435 29.6861 32.1854C30.7488 33.2274 31.3458 34.6406 31.3458 36.1141C31.3458 37.5877 30.7488 39.0009 29.6861 40.0428C28.6233 41.0848 27.1819 41.6701 25.679 41.6701V43.0591H22.8456V41.6701C21.6735 41.6701 20.5303 41.3139 19.5733 40.6505C18.6163 39.987 17.8926 39.0491 17.5018 37.9657C17.4336 37.7924 17.4016 37.6074 17.4076 37.4218C17.4137 37.2362 17.4576 37.0536 17.5368 36.8849C17.6161 36.7162 17.729 36.5648 17.869 36.4397C17.9457 36.371 18.0298 36.311 18.1196 36.2606C18.1934 36.2191 18.2711 36.1843 18.3517 36.1563C18.5303 36.0944 18.7197 36.0683 18.9088 36.0795C19.0016 36.085 19.0933 36.0994 19.1826 36.1223C19.2754 36.1461 19.3656 36.1793 19.4525 36.2213C19.6223 36.3038 19.7734 36.4188 19.897 36.5595C20.0207 36.7002 20.1143 36.8638 20.1723 37.0406C20.5633 38.1212 21.6131 38.8921 22.8456 38.8921V33.3361C21.3427 33.3361 19.9013 32.7507 18.8385 31.7088C17.7758 30.6668 17.1788 29.2536 17.1788 27.7801C17.1788 26.3065 17.7758 24.8933 18.8385 23.8514C19.9013 22.8094 21.3427 22.2241 22.8456 22.2241V20.8351H25.679ZM20.8421 25.8157C21.3734 25.2948 22.0941 25.0021 22.8456 25.0021V30.5581C22.0941 30.5581 21.3734 30.2654 20.8421 29.7444C20.3107 29.2235 20.0122 28.5169 20.0122 27.7801C20.0122 27.0433 20.3107 26.3367 20.8421 25.8157ZM25.679 38.8921V33.3361C26.4305 33.3361 27.1512 33.6288 27.6825 34.1498C27.9647 34.4265 28.1816 34.7557 28.3223 35.114C28.4468 35.4301 28.5124 35.7688 28.5124 36.1141C28.5124 36.8509 28.2139 37.5575 27.6825 38.0785C27.3764 38.3789 27.0068 38.6034 26.6045 38.7396C26.3096 38.8396 25.9969 38.8921 25.679 38.8921Z" fill="#F8FDFF"/>
</svg>
