<svg width="30" height="30" viewBox="0 0 30 30" fill="none" xmlns="http://www.w3.org/2000/svg">
<g clip-path="url(#clip0_46_63)">
<path d="M0 1.875C0 1.37772 0.197544 0.900805 0.549174 0.549174C0.900805 0.197544 1.37772 0 1.875 0H5.9125C6.35622 0.00026593 6.78547 0.157889 7.12393 0.444843C7.46238 0.731797 7.68809 1.12948 7.76094 1.56719L9.14844 9.88281C9.21473 10.2788 9.15214 10.6857 8.96987 11.0435C8.7876 11.4013 8.49528 11.6911 8.13594 11.8703L5.23281 13.3203C6.27361 15.8997 7.82371 18.2427 9.79048 20.2095C11.7572 22.1763 14.1003 23.7264 16.6797 24.7672L18.1312 21.8641C18.3103 21.5053 18.5996 21.2134 18.9568 21.0312C19.3139 20.8489 19.7201 20.786 20.1156 20.8516L28.4328 22.2391C28.8705 22.3119 29.2682 22.5376 29.5552 22.8761C29.8421 23.2145 29.9997 23.6438 30 24.0875V28.125C30 28.6223 29.8025 29.0992 29.4508 29.4508C29.0992 29.8025 28.6223 30 28.125 30H24.375C10.9125 30 0 19.0875 0 5.625V1.875Z" fill="#21A3D9"/>
</g>
<defs>
<clipPath id="clip0_46_63">
<rect width="30" height="30" fill="white"/>
</clipPath>
</defs>
</svg>
