<svg width="37" height="37" viewBox="0 0 37 37" fill="none" xmlns="http://www.w3.org/2000/svg">
<path fill-rule="evenodd" clip-rule="evenodd" d="M4.6 0C3.38 0 2.20998 0.484641 1.34731 1.34731C0.484641 2.20998 0 3.38 0 4.6V29.9C0 31.73 0.726962 33.485 2.02096 34.779C3.31496 36.073 5.07001 36.8 6.9 36.8C8.72999 36.8 10.485 36.073 11.779 34.779C13.073 33.485 13.8 31.73 13.8 29.9V4.6C13.8 3.38 13.3154 2.20998 12.4527 1.34731C11.59 0.484641 10.42 0 9.2 0H4.6ZM6.9 32.2C7.20204 32.2 7.50112 32.1405 7.78017 32.0249C8.05922 31.9093 8.31277 31.7399 8.52635 31.5263C8.73992 31.3128 8.90934 31.0592 9.02492 30.7802C9.14051 30.5011 9.2 30.202 9.2 29.9C9.2 29.598 9.14051 29.2989 9.02492 29.0198C8.90934 28.7408 8.73992 28.4872 8.52635 28.2737C8.31277 28.0601 8.05922 27.8907 7.78017 27.7751C7.50112 27.6595 7.20204 27.6 6.9 27.6C6.29 27.6 5.70499 27.8423 5.27365 28.2737C4.84232 28.705 4.6 29.29 4.6 29.9C4.6 30.51 4.84232 31.095 5.27365 31.5263C5.70499 31.9577 6.29 32.2 6.9 32.2ZM18.4 28.1597L29.67 16.8897C30.5326 16.027 31.0172 14.857 31.0172 13.6371C31.0172 12.4171 30.5326 11.2472 29.67 10.3845L26.4155 7.13C25.5528 6.2674 24.3829 5.7828 23.1629 5.7828C21.943 5.7828 20.773 6.2674 19.9103 7.13L18.4 8.64033V28.1597ZM32.2 36.8H16.2629L30.0629 23H32.2C33.42 23 34.59 23.4846 35.4527 24.3473C36.3154 25.21 36.8 26.38 36.8 27.6V32.2C36.8 33.42 36.3154 34.59 35.4527 35.4527C34.59 36.3154 33.42 36.8 32.2 36.8Z" fill="#F8FDFF"/>
</svg>
