<svg width="44" height="50" viewBox="0 0 44 50" fill="none" xmlns="http://www.w3.org/2000/svg">
<path d="M21.8746 23.4363C23.5322 23.4363 25.1219 22.7778 26.294 21.6058C27.4661 20.4337 28.1245 18.844 28.1245 17.1864C28.1245 15.5288 27.4661 13.9391 26.294 12.7671C25.1219 11.595 23.5322 10.9365 21.8746 10.9365C20.2171 10.9365 18.6274 11.595 17.4553 12.7671C16.2832 13.9391 15.6247 15.5288 15.6247 17.1864C15.6247 18.844 16.2832 20.4337 17.4553 21.6058C18.6274 22.7778 20.2171 23.4363 21.8746 23.4363ZM21.8746 39.061C29.687 39.061 32.812 35.1392 32.812 31.2487C32.812 30.0055 32.3181 28.8132 31.4391 27.9342C30.56 27.0551 29.3677 26.5613 28.1245 26.5613H15.6247C14.3816 26.5613 13.1893 27.0551 12.3102 27.9342C11.4312 28.8132 10.9373 30.0055 10.9373 31.2487C10.9373 35.1549 14.0623 39.061 21.8746 39.061ZM22.7403 0.261688C22.4838 0.0910433 22.1827 0 21.8746 0C21.5666 0 21.2655 0.0910433 21.009 0.261688C15.1096 4.2388 8.38461 6.82556 1.3406 7.82719C0.968423 7.88058 0.627977 8.06639 0.38173 8.35052C0.135482 8.63465 -5.0121e-05 8.99805 1.39044e-08 9.37404V23.4363C1.39044e-08 35.5955 7.20926 44.4672 21.3122 49.8952C21.6741 50.0349 22.0752 50.0349 22.4371 49.8952C36.54 44.4672 43.7493 35.5924 43.7493 23.4363V9.37404C43.7492 8.99758 43.6133 8.6338 43.3664 8.3496C43.1195 8.0654 42.7783 7.87989 42.4056 7.82719C35.3626 6.8251 28.6388 4.23836 22.7403 0.261688ZM3.12495 10.7115C9.31555 9.66303 15.2527 7.45569 20.6247 4.20537L21.8746 3.42726L23.1246 4.20537C28.4966 7.45569 34.4337 9.66303 40.6243 10.7115V23.4363C40.6243 34.0361 34.4744 41.7579 21.8746 46.7578C9.27485 41.7579 3.12495 34.0361 3.12495 23.4363V10.7115Z" fill="#232323"/>
<path fill-rule="evenodd" clip-rule="evenodd" d="M20.6247 4.20537C15.2527 7.45569 9.31555 9.66303 3.12495 10.7115V23.4363C3.12495 34.0361 9.27485 41.7579 21.8746 46.7578C34.4744 41.7579 40.6243 34.0361 40.6243 23.4363V10.7115C34.4337 9.66303 28.4966 7.45569 23.1246 4.20537L21.8746 3.42726L20.6247 4.20537ZM26.294 21.6058C25.1219 22.7778 23.5322 23.4363 21.8746 23.4363C20.2171 23.4363 18.6274 22.7778 17.4553 21.6058C16.2832 20.4337 15.6247 18.844 15.6247 17.1864C15.6247 15.5288 16.2832 13.9391 17.4553 12.7671C18.6274 11.595 20.2171 10.9365 21.8746 10.9365C23.5322 10.9365 25.1219 11.595 26.294 12.7671C27.4661 13.9391 28.1245 15.5288 28.1245 17.1864C28.1245 18.844 27.4661 20.4337 26.294 21.6058ZM32.812 31.2487C32.812 35.1392 29.687 39.061 21.8746 39.061C14.0623 39.061 10.9373 35.1549 10.9373 31.2487C10.9373 30.0055 11.4312 28.8132 12.3102 27.9342C13.1893 27.0551 14.3816 26.5613 15.6247 26.5613H28.1245C29.3677 26.5613 30.56 27.0551 31.4391 27.9342C32.3181 28.8132 32.812 30.0055 32.812 31.2487Z" fill="#F8FDFF"/>
</svg>
