<svg width="37" height="37" viewBox="0 0 37 37" fill="none" xmlns="http://www.w3.org/2000/svg">
<path fill-rule="evenodd" clip-rule="evenodd" d="M6.9 0C7.51 0 8.09501 0.24232 8.52635 0.673654C8.95768 1.10499 9.2 1.69 9.2 2.3V4.6H11.5C12.11 4.6 12.695 4.84232 13.1263 5.27365C13.5577 5.70499 13.8 6.29 13.8 6.9C13.8 7.51 13.5577 8.09501 13.1263 8.52634C12.695 8.95768 12.11 9.2 11.5 9.2H9.2V11.5C9.2 12.11 8.95768 12.695 8.52635 13.1263C8.09501 13.5577 7.51 13.8 6.9 13.8C6.29 13.8 5.70499 13.5577 5.27366 13.1263C4.84232 12.695 4.6 12.11 4.6 11.5V9.2H2.3C1.99796 9.2 1.69888 9.14051 1.41983 9.02492C1.14078 8.90934 0.887229 8.73992 0.673654 8.52635C0.46008 8.31277 0.290663 8.05922 0.175077 7.78017C0.0594913 7.50112 0 7.20204 0 6.9C0 6.59796 0.0594913 6.29888 0.175077 6.01983C0.290663 5.74078 0.46008 5.48723 0.673654 5.27365C0.887229 5.06008 1.14078 4.89066 1.41983 4.77508C1.69888 4.65949 1.99796 4.6 2.3 4.6H4.6V2.3C4.6 1.69 4.84232 1.10499 5.27366 0.673654C5.70499 0.24232 6.29 0 6.9 0ZM6.9 23C7.51 23 8.09501 23.2423 8.52635 23.6737C8.95768 24.105 9.2 24.69 9.2 25.3V27.6H11.5C12.11 27.6 12.695 27.8423 13.1263 28.2737C13.5577 28.705 13.8 29.29 13.8 29.9C13.8 30.51 13.5577 31.095 13.1263 31.5263C12.695 31.9577 12.11 32.2 11.5 32.2H9.2V34.5C9.2 35.11 8.95768 35.695 8.52635 36.1263C8.09501 36.5577 7.51 36.8 6.9 36.8C6.29 36.8 5.70499 36.5577 5.27366 36.1263C4.84232 35.695 4.6 35.11 4.6 34.5V32.2H2.3C1.99796 32.2 1.69888 32.1405 1.41983 32.0249C1.14078 31.9093 0.887229 31.7399 0.673654 31.5263C0.46008 31.3128 0.290663 31.0592 0.175077 30.7802C0.0594913 30.5011 0 30.202 0 29.9C0 29.598 0.0594913 29.2989 0.175077 29.0198C0.290663 28.7408 0.46008 28.4872 0.673654 28.2737C0.887229 28.0601 1.14078 27.8907 1.41983 27.7751C1.69888 27.6595 1.99796 27.6 2.3 27.6H4.6V25.3C4.6 24.998 4.65949 24.6989 4.77508 24.4198C4.89066 24.1408 5.06008 23.8872 5.27366 23.6737C5.48723 23.4601 5.74078 23.2907 6.01983 23.1751C6.29888 23.0595 6.59796 23 6.9 23ZM23 0C23.5075 2.75257e-05 24.0008 0.167909 24.4029 0.47749C24.805 0.787072 25.0935 1.22097 25.2233 1.71158L27.9354 11.96L35.65 16.4067C36.0003 16.6083 36.2913 16.8988 36.4937 17.2487C36.696 17.5987 36.8026 17.9958 36.8026 18.4C36.8026 18.8042 36.696 19.2013 36.4937 19.5513C36.2913 19.9012 36.0003 20.1917 35.65 20.3933L27.9354 24.8419L25.2214 35.0884C25.0915 35.5789 24.803 36.0127 24.4009 36.3222C23.9987 36.6317 23.5055 36.7995 22.9981 36.7995C22.4906 36.7995 21.9974 36.6317 21.5953 36.3222C21.1932 36.0127 20.9047 35.5789 20.7748 35.0884L18.0646 24.84L10.35 20.3933C9.99966 20.1917 9.70866 19.9012 9.50632 19.5513C9.30398 19.2013 9.19744 18.8042 9.19744 18.4C9.19744 17.9958 9.30398 17.5987 9.50632 17.2487C9.70866 16.8988 9.99966 16.6083 10.35 16.4067L18.0646 11.9581L20.7786 1.71158C20.9083 1.22129 21.1965 0.787623 21.5983 0.478074C22 0.168526 22.4928 0.000450207 23 0Z" fill="#F8FDFF"/>
</svg>
